<svg width="41" height="41" viewBox="0 0 41 41" fill="none" xmlns="http://www.w3.org/2000/svg">
<circle cx="20.1592" cy="20.2208" r="20" fill="white"/>
<path d="M25.8657 15.2923C25.8657 12.1537 23.2978 9.58582 20.1592 9.58582C17.0207 9.58582 14.4528 12.1537 14.4528 15.2923C14.4528 18.4309 17.0207 20.9988 20.1592 20.9988C23.2978 20.9988 25.8657 18.4309 25.8657 15.2923Z" fill="#0765A9"/>
<path d="M22.4159 22.192C21.6896 22.4254 20.9374 22.5551 20.1592 22.5551C19.3811 22.5551 18.6289 22.4254 17.9026 22.192C15.62 21.4397 13.078 22.0623 11.5736 23.9039C10.4582 25.2786 9.78381 27.0425 9.78381 28.936C9.78381 29.9995 10.6398 30.8554 11.7033 30.8554H28.6152C29.6787 30.8554 30.5347 29.9995 30.5347 28.936C30.5347 27.0425 29.8603 25.2786 28.7449 23.9039C27.2145 22.0623 24.6985 21.4397 22.4159 22.192Z" fill="#0765A9"/>
</svg>
