<svg width="145" height="42" viewBox="0 0 145 42" fill="none" xmlns="http://www.w3.org/2000/svg">
<rect x="0.223389" y="0.0151367" width="144" height="34" rx="12" fill="#003E6A"/>
<rect x="64.2234" y="33.5" width="11.9994" height="11.9994" transform="rotate(-45 64.2234 33.5)" fill="#003E6A"/>
<path d="M48.0674 18.6131C47.8394 19.4411 47.4734 20.1251 46.9694 20.6651C46.4654 21.1931 45.8654 21.5831 45.1694 21.8351C44.4734 22.0751 43.7054 22.1951 42.8654 22.1951C41.6654 22.1951 40.6274 21.9551 39.7514 21.4751C38.8754 20.9831 38.2034 20.2811 37.7354 19.3691C37.2674 18.4571 37.0334 17.3591 37.0334 16.0751C37.0334 14.7911 37.2674 13.6931 37.7354 12.7811C38.2034 11.8691 38.8754 11.1731 39.7514 10.6931C40.6274 10.2011 41.6594 9.95514 42.8474 9.95514C43.6754 9.95514 44.4374 10.0751 45.1334 10.3151C45.8294 10.5431 46.4174 10.8971 46.8974 11.3771C47.3774 11.8571 47.7194 12.4751 47.9234 13.2311L45.2054 14.3291C45.0374 13.5851 44.7614 13.0751 44.3774 12.7991C44.0054 12.5231 43.5314 12.3851 42.9554 12.3851C42.3914 12.3851 41.8994 12.5231 41.4794 12.7991C41.0714 13.0751 40.7534 13.4891 40.5254 14.0411C40.3094 14.5811 40.2014 15.2591 40.2014 16.0751C40.2014 16.8791 40.3034 17.5571 40.5074 18.1091C40.7114 18.6611 41.0174 19.0751 41.4254 19.3511C41.8454 19.6271 42.3614 19.7651 42.9734 19.7651C43.5494 19.7651 44.0354 19.6091 44.4314 19.2971C44.8394 18.9731 45.1154 18.4811 45.2594 17.8211L48.0674 18.6131ZM53.8573 12.8351C54.8053 12.8351 55.6333 13.0211 56.3413 13.3931C57.0613 13.7531 57.6193 14.2871 58.0153 14.9951C58.4233 15.6911 58.6273 16.5311 58.6273 17.5151C58.6273 18.4991 58.4233 19.3451 58.0153 20.0531C57.6193 20.7491 57.0613 21.2831 56.3413 21.6551C55.6333 22.0151 54.8053 22.1951 53.8573 22.1951C52.9333 22.1951 52.1113 22.0151 51.3913 21.6551C50.6713 21.2831 50.1073 20.7491 49.6993 20.0531C49.3033 19.3451 49.1053 18.4991 49.1053 17.5151C49.1053 16.5311 49.3033 15.6911 49.6993 14.9951C50.1073 14.2871 50.6713 13.7531 51.3913 13.3931C52.1113 13.0211 52.9333 12.8351 53.8573 12.8351ZM53.8573 15.0131C53.5093 15.0131 53.2093 15.0971 52.9573 15.2651C52.7053 15.4331 52.5133 15.7031 52.3813 16.0751C52.2493 16.4471 52.1833 16.9271 52.1833 17.5151C52.1833 18.1031 52.2493 18.5831 52.3813 18.9551C52.5133 19.3151 52.7053 19.5851 52.9573 19.7651C53.2093 19.9331 53.5093 20.0171 53.8573 20.0171C54.2173 20.0171 54.5233 19.9331 54.7753 19.7651C55.0273 19.5851 55.2193 19.3151 55.3513 18.9551C55.4833 18.5831 55.5493 18.1031 55.5493 17.5151C55.5493 16.9271 55.4833 16.4471 55.3513 16.0751C55.2193 15.7031 55.0273 15.4331 54.7753 15.2651C54.5233 15.0971 54.2173 15.0131 53.8573 15.0131ZM60.3487 22.0151V13.0151H63.0847L63.2467 16.1111L62.9047 15.7691C63.0247 15.1211 63.2347 14.5811 63.5347 14.1491C63.8467 13.7171 64.2307 13.3931 64.6867 13.1771C65.1547 12.9491 65.6767 12.8351 66.2527 12.8351C66.8767 12.8351 67.4167 12.9551 67.8727 13.1951C68.3407 13.4351 68.7067 13.7891 68.9707 14.2571C69.2347 14.7251 69.3667 15.3131 69.3667 16.0211V22.0151H66.3067V16.8311C66.3067 16.2071 66.1867 15.7751 65.9467 15.5351C65.7067 15.2951 65.4007 15.1751 65.0287 15.1751C64.7407 15.1751 64.4707 15.2471 64.2187 15.3911C63.9667 15.5231 63.7687 15.7391 63.6247 16.0391C63.4807 16.3391 63.4087 16.7411 63.4087 17.2451V22.0151H60.3487ZM75.6521 8.94714C76.1441 8.94714 76.5761 9.00114 76.9481 9.10914C77.3201 9.20514 77.5961 9.31914 77.7761 9.45114L77.4701 11.3591C77.3381 11.2751 77.1881 11.2091 77.0201 11.1611C76.8521 11.1131 76.6421 11.0891 76.3901 11.0891C75.9701 11.0891 75.6221 11.1851 75.3461 11.3771C75.0821 11.5691 74.9501 11.9051 74.9501 12.3851V13.5551L75.1301 14.0591V22.0151H72.0701V12.1871C72.0701 11.6111 72.1601 11.1191 72.3401 10.7111C72.5321 10.3031 72.7961 9.96714 73.1321 9.70314C73.4681 9.43914 73.8521 9.24714 74.2841 9.12714C74.7161 9.00714 75.1721 8.94714 75.6521 8.94714ZM77.6861 13.0151V15.1931H70.6301V13.0151H77.6861ZM80.4581 11.9711C79.8341 11.9711 79.3781 11.8571 79.0901 11.6291C78.8141 11.3891 78.6761 11.0171 78.6761 10.5131C78.6761 9.99714 78.8141 9.62514 79.0901 9.39714C79.3781 9.15714 79.8341 9.03714 80.4581 9.03714C81.0701 9.03714 81.5201 9.15714 81.8081 9.39714C82.0961 9.62514 82.2401 9.99714 82.2401 10.5131C82.2401 11.0171 82.0961 11.3891 81.8081 11.6291C81.5201 11.8571 81.0701 11.9711 80.4581 11.9711ZM81.9881 13.0151V22.0151H78.9281V13.0151H81.9881ZM84.1671 22.0151V13.0151H86.8671L86.9931 14.9591C87.2211 14.2871 87.5571 13.7651 88.0011 13.3931C88.4571 13.0211 89.0331 12.8351 89.7291 12.8351C89.9571 12.8351 90.1491 12.8531 90.3051 12.8891C90.4731 12.9251 90.6051 12.9731 90.7011 13.0331L90.3951 15.5531C90.2751 15.5051 90.1191 15.4691 89.9271 15.4451C89.7471 15.4091 89.5251 15.3911 89.2611 15.3911C88.9011 15.3911 88.5651 15.4691 88.2531 15.6251C87.9411 15.7811 87.6891 16.0151 87.4971 16.3271C87.3171 16.6271 87.2271 17.0111 87.2271 17.4791V22.0151H84.1671ZM91.9015 22.0151V13.0151H94.6375L94.7275 14.7611C95.0155 14.1251 95.4175 13.6451 95.9335 13.3211C96.4615 12.9971 97.0675 12.8351 97.7515 12.8351C98.4235 12.8351 99.0055 12.9851 99.4975 13.2851C99.9895 13.5851 100.355 14.0291 100.595 14.6171C100.787 14.2211 101.033 13.8911 101.333 13.6271C101.645 13.3631 101.999 13.1651 102.395 13.0331C102.791 12.9011 103.199 12.8351 103.619 12.8351C104.219 12.8351 104.747 12.9551 105.203 13.1951C105.659 13.4231 106.019 13.7771 106.283 14.2571C106.559 14.7251 106.697 15.3131 106.697 16.0211V22.0151H103.637V16.7231C103.637 16.1471 103.523 15.7451 103.295 15.5171C103.079 15.2891 102.785 15.1751 102.413 15.1751C102.113 15.1751 101.837 15.2531 101.585 15.4091C101.345 15.5531 101.159 15.7751 101.027 16.0751C100.895 16.3751 100.829 16.7531 100.829 17.2091V22.0151H97.7695V16.7231C97.7695 16.1471 97.6555 15.7451 97.4275 15.5171C97.1995 15.2891 96.9055 15.1751 96.5455 15.1751C96.2695 15.1751 96.0055 15.2471 95.7535 15.3911C95.5135 15.5351 95.3215 15.7631 95.1775 16.0751C95.0335 16.3751 94.9615 16.7711 94.9615 17.2631V22.0151H91.9015Z" fill="white"/>
</svg>
