<svg width="84" height="18" viewBox="0 0 84 18" fill="none" xmlns="http://www.w3.org/2000/svg">
<rect width="84" height="18" rx="9" fill="#003E6A"/>
<path d="M31.368 5.08C32.608 5.08 33.552 5.424 34.2 6.112C34.848 6.8 35.172 7.776 35.172 9.04C35.172 10.304 34.848 11.28 34.2 11.968C33.552 12.656 32.608 13 31.368 13H27.732V5.08H31.368ZM31.068 11.212C31.652 11.212 32.06 11.032 32.292 10.672C32.532 10.312 32.652 9.768 32.652 9.04C32.652 8.312 32.532 7.768 32.292 7.408C32.06 7.048 31.652 6.868 31.068 6.868H30.18V11.212H31.068ZM39.2616 13.12C38.2216 13.12 37.4056 12.848 36.8136 12.304C36.2216 11.76 35.9256 10.992 35.9256 10C35.9256 9.336 36.0616 8.772 36.3336 8.308C36.6056 7.844 36.9856 7.492 37.4736 7.252C37.9616 7.004 38.5256 6.88 39.1656 6.88C39.8216 6.88 40.3776 7.004 40.8336 7.252C41.2976 7.492 41.6496 7.828 41.8896 8.26C42.1376 8.692 42.2616 9.196 42.2616 9.772C42.2616 10.068 42.2416 10.32 42.2016 10.528H38.2536C38.3096 10.888 38.4216 11.136 38.5896 11.272C38.7656 11.4 38.9976 11.464 39.2856 11.464C39.5336 11.464 39.7296 11.412 39.8736 11.308C40.0256 11.204 40.1336 11.06 40.1976 10.876L42.1416 11.452C42.0376 11.82 41.8416 12.128 41.5536 12.376C41.2656 12.624 40.9216 12.812 40.5216 12.94C40.1216 13.06 39.7016 13.12 39.2616 13.12ZM39.1656 8.524C38.9096 8.524 38.7056 8.596 38.5536 8.74C38.4096 8.884 38.3136 9.128 38.2656 9.472H39.9696C39.9376 9.16 39.8576 8.924 39.7296 8.764C39.6096 8.604 39.4216 8.524 39.1656 8.524ZM43.1505 13V7H45.3345L45.3945 8.272C45.5705 7.824 45.8345 7.48 46.1865 7.24C46.5385 7 46.9625 6.88 47.4585 6.88C48.0665 6.88 48.5465 7.06 48.8985 7.42C49.2505 7.772 49.4265 8.28 49.4265 8.944V13H47.0025V9.568C47.0025 9.24 46.9465 9.012 46.8345 8.884C46.7305 8.756 46.5785 8.692 46.3785 8.692C46.1385 8.692 45.9425 8.78 45.7905 8.956C45.6465 9.132 45.5745 9.424 45.5745 9.832V13H43.1505ZM56.7309 7L54.7749 12.64C54.5269 13.36 54.2549 13.936 53.9589 14.368C53.6629 14.8 53.3109 15.108 52.9029 15.292C52.4949 15.484 51.9989 15.58 51.4149 15.58C51.0549 15.58 50.7269 15.544 50.4309 15.472C50.1349 15.4 49.8789 15.304 49.6629 15.184L50.1189 13.612C50.2549 13.692 50.3989 13.752 50.5509 13.792C50.7109 13.832 50.9229 13.852 51.1869 13.852C51.4349 13.852 51.6269 13.82 51.7629 13.756C51.8989 13.692 51.9989 13.576 52.0629 13.408L52.1469 13.18L51.4269 11.476L49.6749 7H52.3269L53.0469 10.252L53.2989 11.584L53.5989 10.216L54.3429 7H56.7309Z" fill="white"/>
</svg>
