<svg width="153" height="22" viewBox="0 0 153 22" fill="none" xmlns="http://www.w3.org/2000/svg">
<rect width="153" height="22" rx="11" fill="#00B2FF"/>
<path d="M35.668 7.08C36.684 7.08 37.472 7.316 38.032 7.788C38.592 8.26 38.872 8.932 38.872 9.804C38.872 10.676 38.592 11.348 38.032 11.82C37.472 12.292 36.684 12.528 35.668 12.528H34.18V15H31.732V7.08H35.668ZM35.272 10.752C35.64 10.752 35.92 10.676 36.112 10.524C36.312 10.364 36.412 10.124 36.412 9.804C36.412 9.484 36.312 9.248 36.112 9.096C35.92 8.936 35.64 8.856 35.272 8.856H34.18V10.752H35.272ZM39.8497 15V9H42.0217L42.0937 10.404C42.2297 9.932 42.4417 9.56 42.7297 9.288C43.0257 9.016 43.4097 8.88 43.8817 8.88C44.0497 8.88 44.1817 8.896 44.2777 8.928C44.3817 8.952 44.4617 8.984 44.5177 9.024L44.3017 10.992C44.2217 10.96 44.1177 10.932 43.9897 10.908C43.8617 10.884 43.7137 10.872 43.5457 10.872C43.1857 10.872 42.8817 10.972 42.6337 11.172C42.3937 11.364 42.2737 11.656 42.2737 12.048V15H39.8497ZM48.0528 8.88C48.7008 8.88 49.2688 9.004 49.7568 9.252C50.2528 9.492 50.6368 9.848 50.9088 10.32C51.1808 10.784 51.3168 11.344 51.3168 12C51.3168 12.656 51.1808 13.22 50.9088 13.692C50.6368 14.156 50.2528 14.512 49.7568 14.76C49.2688 15 48.7008 15.12 48.0528 15.12C47.4048 15.12 46.8368 15 46.3488 14.76C45.8608 14.512 45.4768 14.156 45.1968 13.692C44.9248 13.22 44.7888 12.656 44.7888 12C44.7888 11.344 44.9248 10.784 45.1968 10.32C45.4768 9.848 45.8608 9.492 46.3488 9.252C46.8368 9.004 47.4048 8.88 48.0528 8.88ZM48.0528 10.548C47.7888 10.548 47.5848 10.656 47.4408 10.872C47.2968 11.08 47.2248 11.456 47.2248 12C47.2248 12.544 47.2968 12.924 47.4408 13.14C47.5848 13.348 47.7888 13.452 48.0528 13.452C48.3168 13.452 48.5208 13.348 48.6648 13.14C48.8088 12.924 48.8808 12.544 48.8808 12C48.8808 11.456 48.8088 11.08 48.6648 10.872C48.5208 10.656 48.3168 10.548 48.0528 10.548ZM52.2247 17.52V9H54.4207L54.4807 10.212C54.6487 9.812 54.8967 9.492 55.2247 9.252C55.5527 9.004 55.9487 8.88 56.4127 8.88C57.1487 8.88 57.7247 9.152 58.1407 9.696C58.5647 10.232 58.7767 10.992 58.7767 11.976C58.7767 12.968 58.5607 13.74 58.1287 14.292C57.7047 14.844 57.1287 15.12 56.4007 15.12C55.9687 15.12 55.6087 15.016 55.3207 14.808C55.0327 14.6 54.8087 14.324 54.6487 13.98V17.52H52.2247ZM55.4767 13.38C55.7407 13.38 55.9487 13.28 56.1007 13.08C56.2607 12.872 56.3407 12.512 56.3407 12C56.3407 11.488 56.2647 11.128 56.1127 10.92C55.9607 10.712 55.7527 10.608 55.4887 10.608C55.2247 10.608 55.0167 10.724 54.8647 10.956C54.7207 11.188 54.6487 11.536 54.6487 12C54.6487 12.44 54.7167 12.78 54.8527 13.02C54.9967 13.26 55.2047 13.38 55.4767 13.38ZM62.7482 8.88C63.3962 8.88 63.9642 9.004 64.4522 9.252C64.9482 9.492 65.3322 9.848 65.6042 10.32C65.8762 10.784 66.0122 11.344 66.0122 12C66.0122 12.656 65.8762 13.22 65.6042 13.692C65.3322 14.156 64.9482 14.512 64.4522 14.76C63.9642 15 63.3962 15.12 62.7482 15.12C62.1002 15.12 61.5322 15 61.0442 14.76C60.5562 14.512 60.1722 14.156 59.8922 13.692C59.6202 13.22 59.4842 12.656 59.4842 12C59.4842 11.344 59.6202 10.784 59.8922 10.32C60.1722 9.848 60.5562 9.492 61.0442 9.252C61.5322 9.004 62.1002 8.88 62.7482 8.88ZM62.7482 10.548C62.4842 10.548 62.2802 10.656 62.1362 10.872C61.9922 11.08 61.9202 11.456 61.9202 12C61.9202 12.544 61.9922 12.924 62.1362 13.14C62.2802 13.348 62.4842 13.452 62.7482 13.452C63.0122 13.452 63.2162 13.348 63.3602 13.14C63.5042 12.924 63.5762 12.544 63.5762 12C63.5762 11.456 63.5042 11.08 63.3602 10.872C63.2162 10.656 63.0122 10.548 62.7482 10.548ZM69.572 15.12C68.98 15.12 68.42 15.032 67.892 14.856C67.364 14.68 66.912 14.42 66.536 14.076L67.508 12.792C67.724 13.008 68 13.196 68.336 13.356C68.68 13.516 69.04 13.596 69.416 13.596C69.608 13.596 69.768 13.572 69.896 13.524C70.032 13.468 70.1 13.384 70.1 13.272C70.1 13.192 70.064 13.128 69.992 13.08C69.928 13.024 69.788 12.976 69.572 12.936L68.948 12.816C68.124 12.656 67.544 12.424 67.208 12.12C66.872 11.808 66.704 11.4 66.704 10.896C66.704 10.568 66.804 10.252 67.004 9.948C67.212 9.636 67.536 9.38 67.976 9.18C68.424 8.98 69 8.88 69.704 8.88C70.32 8.88 70.868 8.964 71.348 9.132C71.828 9.3 72.216 9.532 72.512 9.828L71.564 11.076C71.348 10.868 71.076 10.704 70.748 10.584C70.42 10.464 70.108 10.404 69.812 10.404C69.348 10.404 69.116 10.508 69.116 10.716C69.116 10.796 69.16 10.868 69.248 10.932C69.344 10.988 69.516 11.04 69.764 11.088L70.724 11.256C71.356 11.368 71.816 11.576 72.104 11.88C72.392 12.184 72.536 12.556 72.536 12.996C72.536 13.388 72.432 13.744 72.224 14.064C72.016 14.384 71.692 14.64 71.252 14.832C70.812 15.024 70.252 15.12 69.572 15.12ZM76.3788 15.12C75.3388 15.12 74.5228 14.848 73.9308 14.304C73.3388 13.76 73.0428 12.992 73.0428 12C73.0428 11.336 73.1788 10.772 73.4508 10.308C73.7228 9.844 74.1028 9.492 74.5908 9.252C75.0788 9.004 75.6428 8.88 76.2828 8.88C76.9388 8.88 77.4948 9.004 77.9508 9.252C78.4148 9.492 78.7668 9.828 79.0068 10.26C79.2548 10.692 79.3788 11.196 79.3788 11.772C79.3788 12.068 79.3588 12.32 79.3188 12.528H75.3708C75.4268 12.888 75.5388 13.136 75.7068 13.272C75.8828 13.4 76.1148 13.464 76.4028 13.464C76.6508 13.464 76.8468 13.412 76.9908 13.308C77.1428 13.204 77.2508 13.06 77.3148 12.876L79.2588 13.452C79.1548 13.82 78.9588 14.128 78.6708 14.376C78.3828 14.624 78.0388 14.812 77.6388 14.94C77.2388 15.06 76.8188 15.12 76.3788 15.12ZM76.2828 10.524C76.0268 10.524 75.8228 10.596 75.6708 10.74C75.5268 10.884 75.4308 11.128 75.3828 11.472H77.0868C77.0548 11.16 76.9748 10.924 76.8468 10.764C76.7268 10.604 76.5388 10.524 76.2828 10.524ZM90.5026 7.08V8.916H87.9826V15H85.5346V8.916H82.9906V7.08H90.5026ZM93.4061 15.12C92.3661 15.12 91.5501 14.848 90.9581 14.304C90.3661 13.76 90.0701 12.992 90.0701 12C90.0701 11.336 90.2061 10.772 90.4781 10.308C90.7501 9.844 91.1301 9.492 91.6181 9.252C92.1061 9.004 92.6701 8.88 93.3101 8.88C93.9661 8.88 94.5221 9.004 94.9781 9.252C95.4421 9.492 95.7941 9.828 96.0341 10.26C96.2821 10.692 96.4061 11.196 96.4061 11.772C96.4061 12.068 96.3861 12.32 96.3461 12.528H92.3981C92.4541 12.888 92.5661 13.136 92.7341 13.272C92.9101 13.4 93.1421 13.464 93.4301 13.464C93.6781 13.464 93.8741 13.412 94.0181 13.308C94.1701 13.204 94.2781 13.06 94.3421 12.876L96.2861 13.452C96.1821 13.82 95.9861 14.128 95.6981 14.376C95.4101 14.624 95.0661 14.812 94.6661 14.94C94.2661 15.06 93.8461 15.12 93.4061 15.12ZM93.3101 10.524C93.0541 10.524 92.8501 10.596 92.6981 10.74C92.5541 10.884 92.4581 11.128 92.4101 11.472H94.1141C94.0821 11.16 94.0021 10.924 93.8741 10.764C93.7541 10.604 93.5661 10.524 93.3101 10.524ZM101.808 9V10.668H100.176V12.696C100.176 12.976 100.236 13.176 100.356 13.296C100.484 13.416 100.672 13.476 100.92 13.476C101.096 13.476 101.248 13.46 101.376 13.428C101.504 13.388 101.624 13.336 101.736 13.272L101.892 14.688C101.692 14.824 101.428 14.928 101.1 15C100.78 15.08 100.464 15.12 100.152 15.12C99.3839 15.12 98.7919 14.968 98.3759 14.664C97.9599 14.352 97.7519 13.824 97.7519 13.08V10.668H96.7679V9H97.7519V7.692L100.176 7.02V9H101.808ZM102.768 15V6.528H105.192V10.164C105.544 9.308 106.172 8.88 107.076 8.88C107.684 8.88 108.164 9.06 108.516 9.42C108.868 9.772 109.044 10.28 109.044 10.944V15H106.62V11.592C106.62 11.248 106.564 11.012 106.452 10.884C106.348 10.756 106.2 10.692 106.008 10.692C105.768 10.692 105.572 10.784 105.42 10.968C105.268 11.152 105.192 11.444 105.192 11.844V15H102.768ZM113.281 15.12C112.241 15.12 111.425 14.848 110.833 14.304C110.241 13.76 109.945 12.992 109.945 12C109.945 11.336 110.081 10.772 110.353 10.308C110.625 9.844 111.005 9.492 111.493 9.252C111.981 9.004 112.545 8.88 113.185 8.88C113.841 8.88 114.397 9.004 114.853 9.252C115.317 9.492 115.669 9.828 115.909 10.26C116.157 10.692 116.281 11.196 116.281 11.772C116.281 12.068 116.261 12.32 116.221 12.528H112.273C112.329 12.888 112.441 13.136 112.609 13.272C112.785 13.4 113.017 13.464 113.305 13.464C113.553 13.464 113.749 13.412 113.893 13.308C114.045 13.204 114.153 13.06 114.217 12.876L116.161 13.452C116.057 13.82 115.861 14.128 115.573 14.376C115.285 14.624 114.941 14.812 114.541 14.94C114.141 15.06 113.721 15.12 113.281 15.12ZM113.185 10.524C112.929 10.524 112.725 10.596 112.573 10.74C112.429 10.884 112.333 11.128 112.285 11.472H113.989C113.957 11.16 113.877 10.924 113.749 10.764C113.629 10.604 113.441 10.524 113.185 10.524ZM117.17 15V9H119.342L119.414 10.404C119.55 9.932 119.762 9.56 120.05 9.288C120.346 9.016 120.73 8.88 121.202 8.88C121.37 8.88 121.502 8.896 121.598 8.928C121.702 8.952 121.782 8.984 121.838 9.024L121.622 10.992C121.542 10.96 121.438 10.932 121.31 10.908C121.182 10.884 121.034 10.872 120.866 10.872C120.506 10.872 120.202 10.972 119.954 11.172C119.714 11.364 119.594 11.656 119.594 12.048V15H117.17Z" fill="white"/>
</svg>
