<svg width="145" height="42" viewBox="0 0 145 42" fill="none" xmlns="http://www.w3.org/2000/svg">
<rect x="0.223389" y="0.0151367" width="144" height="34" rx="12" fill="#003E6A"/>
<rect x="64.2234" y="33.5" width="11.9994" height="11.9994" transform="rotate(-45 64.2234 33.5)" fill="#003E6A"/>
<path d="M43.2074 10.1351C44.6234 10.1351 45.7214 10.4711 46.5014 11.1431C47.2934 11.8031 47.6894 12.6851 47.6894 13.7891C47.6894 15.0011 47.2994 15.9251 46.5194 16.5611C45.7394 17.1971 44.6414 17.5151 43.2254 17.5151L42.9374 17.6771H40.5794V22.0151H37.5374V10.1351H43.2074ZM42.7754 15.4811C43.3754 15.4811 43.8254 15.3611 44.1254 15.1211C44.4254 14.8811 44.5754 14.4971 44.5754 13.9691C44.5754 13.4531 44.4254 13.0751 44.1254 12.8351C43.8254 12.5951 43.3754 12.4751 42.7754 12.4751H40.5794V15.4811H42.7754ZM44.5934 16.1291L48.3914 22.0151H44.9714L41.9294 16.8131L44.5934 16.1291ZM54.0005 22.1951C53.0045 22.1951 52.1405 22.0091 51.4085 21.6371C50.6885 21.2651 50.1305 20.7311 49.7345 20.0351C49.3385 19.3391 49.1405 18.4991 49.1405 17.5151C49.1405 16.5311 49.3385 15.6911 49.7345 14.9951C50.1305 14.2991 50.6825 13.7651 51.3905 13.3931C52.1105 13.0211 52.9325 12.8351 53.8565 12.8351C54.8045 12.8351 55.6085 13.0211 56.2685 13.3931C56.9405 13.7531 57.4505 14.2571 57.7985 14.9051C58.1465 15.5411 58.3205 16.2731 58.3205 17.1011C58.3205 17.3171 58.3145 17.5331 58.3025 17.7491C58.2905 17.9651 58.2725 18.1451 58.2485 18.2891H51.1205V16.6511H56.8985L55.4405 17.2091C55.4405 16.4891 55.3085 15.9371 55.0445 15.5531C54.7925 15.1691 54.3965 14.9771 53.8565 14.9771C53.4725 14.9771 53.1425 15.0671 52.8665 15.2471C52.6025 15.4271 52.3985 15.7091 52.2545 16.0931C52.1225 16.4771 52.0565 16.9691 52.0565 17.5691C52.0565 18.1571 52.1345 18.6371 52.2905 19.0091C52.4465 19.3691 52.6685 19.6331 52.9565 19.8011C53.2445 19.9571 53.5925 20.0351 54.0005 20.0351C54.4565 20.0351 54.8165 19.9451 55.0805 19.7651C55.3565 19.5851 55.5605 19.3331 55.6925 19.0091L58.1405 19.8191C57.9725 20.3351 57.6785 20.7731 57.2585 21.1331C56.8505 21.4811 56.3585 21.7451 55.7825 21.9251C55.2185 22.1051 54.6245 22.1951 54.0005 22.1951ZM60.0323 22.0151V13.0151H62.7683L62.8583 14.7611C63.1463 14.1251 63.5483 13.6451 64.0643 13.3211C64.5923 12.9971 65.1983 12.8351 65.8823 12.8351C66.5543 12.8351 67.1363 12.9851 67.6283 13.2851C68.1203 13.5851 68.4863 14.0291 68.7263 14.6171C68.9183 14.2211 69.1643 13.8911 69.4643 13.6271C69.7763 13.3631 70.1303 13.1651 70.5263 13.0331C70.9223 12.9011 71.3303 12.8351 71.7503 12.8351C72.3503 12.8351 72.8783 12.9551 73.3343 13.1951C73.7903 13.4231 74.1503 13.7771 74.4143 14.2571C74.6903 14.7251 74.8283 15.3131 74.8283 16.0211V22.0151H71.7683V16.7231C71.7683 16.1471 71.6543 15.7451 71.4263 15.5171C71.2103 15.2891 70.9163 15.1751 70.5443 15.1751C70.2443 15.1751 69.9683 15.2531 69.7163 15.4091C69.4763 15.5531 69.2903 15.7751 69.1583 16.0751C69.0263 16.3751 68.9603 16.7531 68.9603 17.2091V22.0151H65.9003V16.7231C65.9003 16.1471 65.7863 15.7451 65.5583 15.5171C65.3303 15.2891 65.0363 15.1751 64.6763 15.1751C64.4003 15.1751 64.1363 15.2471 63.8843 15.3911C63.6443 15.5351 63.4523 15.7631 63.3083 16.0751C63.1643 16.3751 63.0923 16.7711 63.0923 17.2631V22.0151H60.0323ZM81.2616 12.8351C82.2096 12.8351 83.0376 13.0211 83.7456 13.3931C84.4656 13.7531 85.0236 14.2871 85.4196 14.9951C85.8276 15.6911 86.0316 16.5311 86.0316 17.5151C86.0316 18.4991 85.8276 19.3451 85.4196 20.0531C85.0236 20.7491 84.4656 21.2831 83.7456 21.6551C83.0376 22.0151 82.2096 22.1951 81.2616 22.1951C80.3376 22.1951 79.5156 22.0151 78.7956 21.6551C78.0756 21.2831 77.5116 20.7491 77.1036 20.0531C76.7076 19.3451 76.5096 18.4991 76.5096 17.5151C76.5096 16.5311 76.7076 15.6911 77.1036 14.9951C77.5116 14.2871 78.0756 13.7531 78.7956 13.3931C79.5156 13.0211 80.3376 12.8351 81.2616 12.8351ZM81.2616 15.0131C80.9136 15.0131 80.6136 15.0971 80.3616 15.2651C80.1096 15.4331 79.9176 15.7031 79.7856 16.0751C79.6536 16.4471 79.5876 16.9271 79.5876 17.5151C79.5876 18.1031 79.6536 18.5831 79.7856 18.9551C79.9176 19.3151 80.1096 19.5851 80.3616 19.7651C80.6136 19.9331 80.9136 20.0171 81.2616 20.0171C81.6216 20.0171 81.9276 19.9331 82.1796 19.7651C82.4316 19.5851 82.6236 19.3151 82.7556 18.9551C82.8876 18.5831 82.9536 18.1031 82.9536 17.5151C82.9536 16.9271 82.8876 16.4471 82.7556 16.0751C82.6236 15.7031 82.4316 15.4331 82.1796 15.2651C81.9276 15.0971 81.6216 15.0131 81.2616 15.0131ZM93.4448 13.0151H96.6128L93.3728 22.0151H89.7188L86.4788 13.0151H89.7008L91.5548 19.8731L93.4448 13.0151ZM101.918 22.1951C100.922 22.1951 100.058 22.0091 99.3265 21.6371C98.6065 21.2651 98.0485 20.7311 97.6525 20.0351C97.2565 19.3391 97.0585 18.4991 97.0585 17.5151C97.0585 16.5311 97.2565 15.6911 97.6525 14.9951C98.0485 14.2991 98.6005 13.7651 99.3085 13.3931C100.028 13.0211 100.85 12.8351 101.774 12.8351C102.722 12.8351 103.526 13.0211 104.186 13.3931C104.858 13.7531 105.368 14.2571 105.716 14.9051C106.064 15.5411 106.238 16.2731 106.238 17.1011C106.238 17.3171 106.232 17.5331 106.22 17.7491C106.208 17.9651 106.19 18.1451 106.166 18.2891H99.0385V16.6511H104.816L103.358 17.2091C103.358 16.4891 103.226 15.9371 102.962 15.5531C102.71 15.1691 102.314 14.9771 101.774 14.9771C101.39 14.9771 101.06 15.0671 100.784 15.2471C100.52 15.4271 100.316 15.7091 100.172 16.0931C100.04 16.4771 99.9745 16.9691 99.9745 17.5691C99.9745 18.1571 100.052 18.6371 100.208 19.0091C100.364 19.3691 100.586 19.6331 100.874 19.8011C101.162 19.9571 101.51 20.0351 101.918 20.0351C102.374 20.0351 102.734 19.9451 102.998 19.7651C103.274 19.5851 103.478 19.3331 103.61 19.0091L106.058 19.8191C105.89 20.3351 105.596 20.7731 105.176 21.1331C104.768 21.4811 104.276 21.7451 103.7 21.9251C103.136 22.1051 102.542 22.1951 101.918 22.1951Z" fill="white"/>
</svg>
