<svg width="153" height="22" viewBox="0 0 153 22" fill="none" xmlns="http://www.w3.org/2000/svg">
<rect width="153" height="22" rx="11" fill="#73AC2B"/>
<path d="M54.02 6.96C55.492 6.96 56.672 7.372 57.56 8.196L56.492 9.768C56.132 9.464 55.748 9.228 55.34 9.06C54.94 8.884 54.496 8.796 54.008 8.796C53.632 8.796 53.364 8.848 53.204 8.952C53.052 9.056 52.976 9.188 52.976 9.348C52.976 9.476 53.052 9.58 53.204 9.66C53.356 9.74 53.576 9.812 53.864 9.876L55.064 10.152C55.864 10.336 56.46 10.608 56.852 10.968C57.244 11.32 57.44 11.804 57.44 12.42C57.44 13.02 57.288 13.52 56.984 13.92C56.688 14.32 56.28 14.62 55.76 14.82C55.24 15.02 54.652 15.12 53.996 15.12C53.212 15.12 52.468 15.004 51.764 14.772C51.068 14.54 50.504 14.22 50.072 13.812L51.128 12.192C51.344 12.4 51.608 12.588 51.92 12.756C52.232 12.916 52.564 13.044 52.916 13.14C53.268 13.236 53.608 13.284 53.936 13.284C54.28 13.284 54.528 13.236 54.68 13.14C54.84 13.044 54.92 12.912 54.92 12.744C54.92 12.608 54.868 12.5 54.764 12.42C54.66 12.332 54.464 12.256 54.176 12.192L52.856 11.892C52.424 11.796 52.024 11.664 51.656 11.496C51.288 11.328 50.992 11.096 50.768 10.8C50.552 10.496 50.444 10.1 50.444 9.612C50.444 9.092 50.584 8.636 50.864 8.244C51.144 7.844 51.552 7.532 52.088 7.308C52.624 7.076 53.268 6.96 54.02 6.96ZM61.4295 15.12C60.3895 15.12 59.5735 14.848 58.9815 14.304C58.3895 13.76 58.0935 12.992 58.0935 12C58.0935 11.336 58.2295 10.772 58.5015 10.308C58.7735 9.844 59.1535 9.492 59.6415 9.252C60.1295 9.004 60.6935 8.88 61.3335 8.88C61.9895 8.88 62.5455 9.004 63.0015 9.252C63.4655 9.492 63.8175 9.828 64.0575 10.26C64.3055 10.692 64.4295 11.196 64.4295 11.772C64.4295 12.068 64.4095 12.32 64.3695 12.528H60.4215C60.4775 12.888 60.5895 13.136 60.7575 13.272C60.9335 13.4 61.1655 13.464 61.4535 13.464C61.7015 13.464 61.8975 13.412 62.0415 13.308C62.1935 13.204 62.3015 13.06 62.3655 12.876L64.3095 13.452C64.2055 13.82 64.0095 14.128 63.7215 14.376C63.4335 14.624 63.0895 14.812 62.6895 14.94C62.2895 15.06 61.8695 15.12 61.4295 15.12ZM61.3335 10.524C61.0775 10.524 60.8735 10.596 60.7215 10.74C60.5775 10.884 60.4815 11.128 60.4335 11.472H62.1375C62.1055 11.16 62.0255 10.924 61.8975 10.764C61.7775 10.604 61.5895 10.524 61.3335 10.524ZM67.7305 6.528V12.768C67.7305 13.024 67.7705 13.208 67.8505 13.32C67.9305 13.432 68.0705 13.488 68.2705 13.488C68.3745 13.488 68.4625 13.484 68.5345 13.476C68.6065 13.46 68.6865 13.436 68.7745 13.404L68.6425 14.772C68.4985 14.876 68.2945 14.96 68.0305 15.024C67.7745 15.088 67.5185 15.12 67.2625 15.12C66.5665 15.12 66.0665 14.964 65.7625 14.652C65.4585 14.34 65.3065 13.828 65.3065 13.116V6.528H67.7305ZM72.3983 15.12C71.3583 15.12 70.5423 14.848 69.9503 14.304C69.3583 13.76 69.0623 12.992 69.0623 12C69.0623 11.336 69.1983 10.772 69.4703 10.308C69.7423 9.844 70.1223 9.492 70.6103 9.252C71.0983 9.004 71.6623 8.88 72.3023 8.88C72.9583 8.88 73.5143 9.004 73.9703 9.252C74.4343 9.492 74.7863 9.828 75.0263 10.26C75.2743 10.692 75.3983 11.196 75.3983 11.772C75.3983 12.068 75.3783 12.32 75.3383 12.528H71.3903C71.4463 12.888 71.5583 13.136 71.7263 13.272C71.9023 13.4 72.1343 13.464 72.4223 13.464C72.6703 13.464 72.8663 13.412 73.0103 13.308C73.1623 13.204 73.2703 13.06 73.3343 12.876L75.2783 13.452C75.1743 13.82 74.9783 14.128 74.6903 14.376C74.4023 14.624 74.0583 14.812 73.6583 14.94C73.2583 15.06 72.8383 15.12 72.3983 15.12ZM72.3023 10.524C72.0463 10.524 71.8423 10.596 71.6903 10.74C71.5463 10.884 71.4503 11.128 71.4023 11.472H73.1063C73.0743 11.16 72.9943 10.924 72.8663 10.764C72.7463 10.604 72.5583 10.524 72.3023 10.524ZM79.2752 8.88C79.9472 8.88 80.4992 8.976 80.9312 9.168C81.3712 9.36 81.7032 9.604 81.9272 9.9C82.1512 10.196 82.2792 10.508 82.3112 10.836L80.0672 11.52C80.0432 11.192 79.9752 10.948 79.8632 10.788C79.7592 10.628 79.5912 10.548 79.3592 10.548C79.0552 10.548 78.8272 10.66 78.6752 10.884C78.5312 11.108 78.4592 11.488 78.4592 12.024C78.4592 12.584 78.5432 12.964 78.7112 13.164C78.8792 13.356 79.0992 13.452 79.3712 13.452C79.8112 13.452 80.0632 13.16 80.1272 12.576L82.2992 13.26C82.2672 13.604 82.1272 13.916 81.8792 14.196C81.6392 14.476 81.3072 14.7 80.8832 14.868C80.4592 15.036 79.9592 15.12 79.3832 15.12C78.3432 15.12 77.5232 14.848 76.9232 14.304C76.3232 13.76 76.0232 12.992 76.0232 12C76.0232 11.336 76.1592 10.772 76.4312 10.308C76.7032 9.844 77.0832 9.492 77.5712 9.252C78.0592 9.004 78.6272 8.88 79.2752 8.88ZM87.6673 9V10.668H86.0353V12.696C86.0353 12.976 86.0953 13.176 86.2153 13.296C86.3433 13.416 86.5313 13.476 86.7793 13.476C86.9553 13.476 87.1073 13.46 87.2353 13.428C87.3633 13.388 87.4833 13.336 87.5953 13.272L87.7513 14.688C87.5513 14.824 87.2873 14.928 86.9593 15C86.6393 15.08 86.3233 15.12 86.0113 15.12C85.2433 15.12 84.6513 14.968 84.2353 14.664C83.8193 14.352 83.6113 13.824 83.6113 13.08V10.668H82.6273V9H83.6113V7.692L86.0353 7.02V9H87.6673ZM91.5116 15.12C90.4716 15.12 89.6556 14.848 89.0636 14.304C88.4716 13.76 88.1756 12.992 88.1756 12C88.1756 11.336 88.3116 10.772 88.5836 10.308C88.8556 9.844 89.2356 9.492 89.7236 9.252C90.2116 9.004 90.7756 8.88 91.4156 8.88C92.0716 8.88 92.6276 9.004 93.0836 9.252C93.5476 9.492 93.8996 9.828 94.1396 10.26C94.3876 10.692 94.5116 11.196 94.5116 11.772C94.5116 12.068 94.4916 12.32 94.4516 12.528H90.5036C90.5596 12.888 90.6716 13.136 90.8396 13.272C91.0156 13.4 91.2476 13.464 91.5356 13.464C91.7836 13.464 91.9796 13.412 92.1236 13.308C92.2756 13.204 92.3836 13.06 92.4476 12.876L94.3916 13.452C94.2876 13.82 94.0916 14.128 93.8036 14.376C93.5156 14.624 93.1716 14.812 92.7716 14.94C92.3716 15.06 91.9516 15.12 91.5116 15.12ZM91.4156 10.524C91.1596 10.524 90.9556 10.596 90.8036 10.74C90.6596 10.884 90.5636 11.128 90.5156 11.472H92.2196C92.1876 11.16 92.1076 10.924 91.9796 10.764C91.8596 10.604 91.6716 10.524 91.4156 10.524ZM97.5605 15.12C96.8245 15.12 96.2445 14.852 95.8205 14.316C95.4045 13.772 95.1965 13.008 95.1965 12.024C95.1965 11.024 95.4125 10.252 95.8445 9.708C96.2765 9.156 96.8605 8.88 97.5965 8.88C98.0205 8.88 98.3765 8.984 98.6645 9.192C98.9525 9.4 99.1725 9.676 99.3245 10.02V6.528H101.749V15H99.5645L99.4925 13.812C99.3245 14.212 99.0765 14.532 98.7485 14.772C98.4205 15.004 98.0245 15.12 97.5605 15.12ZM98.4965 13.392C98.7525 13.392 98.9525 13.276 99.0965 13.044C99.2485 12.812 99.3245 12.46 99.3245 11.988C99.3245 11.548 99.2525 11.212 99.1085 10.98C98.9725 10.74 98.7685 10.62 98.4965 10.62C98.2325 10.62 98.0205 10.724 97.8605 10.932C97.7085 11.132 97.6325 11.488 97.6325 12C97.6325 12.512 97.7085 12.872 97.8605 13.08C98.0125 13.288 98.2245 13.392 98.4965 13.392Z" fill="white"/>
</svg>
